<svg xmlns="http://www.w3.org/2000/svg" viewBox="0 0 512 512">
  <defs>
    <radialGradient id="bg" cx="50%" cy="38%" r="75%">
      <stop offset="0%" stop-color="#27602D"></stop>
      <stop offset="55%" stop-color="#1C4D22"></stop>
      <stop offset="100%" stop-color="#123719"></stop>
    </radialGradient>
    <linearGradient id="pot" x1="0" y1="0" x2="0" y2="1">
      <stop offset="0%" stop-color="#FBC56A"></stop>
      <stop offset="42%" stop-color="#F5A944"></stop>
      <stop offset="100%" stop-color="#D9772B"></stop>
    </linearGradient>
    <clipPath id="potclip"><path d="M256,198 C214,198 198,208 198,226 C198,240 208,248 222,252 C172,264 152,300 152,330 C152,392 198,432 256,432 C314,432 360,392 360,330 C360,300 340,264 290,252 C304,248 314,240 314,226 C314,208 298,198 256,198 Z"></path></clipPath>
  </defs>
  <rect width="512" height="512" fill="url(#bg)"></rect><g opacity="0.85"><rect x="-22" y="-22" width="12" height="12" transform="rotate(45 -16 -16)" fill="#F5A944" opacity="0.05"></rect><rect x="38" y="-22" width="12" height="12" transform="rotate(45 44 -16)" fill="#F5A944" opacity="0.05"></rect><rect x="98" y="-22" width="12" height="12" transform="rotate(45 104 -16)" fill="#F5A944" opacity="0.05"></rect><rect x="158" y="-22" width="12" height="12" transform="rotate(45 164 -16)" fill="#F5A944" opacity="0.05"></rect><rect x="218" y="-22" width="12" height="12" transform="rotate(45 224 -16)" fill="#F5A944" opacity="0.05"></rect><rect x="278" y="-22" width="12" height="12" transform="rotate(45 284 -16)" fill="#F5A944" opacity="0.05"></rect><rect x="338" y="-22" width="12" height="12" transform="rotate(45 344 -16)" fill="#F5A944" opacity="0.05"></rect><rect x="398" y="-22" width="12" height="12" transform="rotate(45 404 -16)" fill="#F5A944" opacity="0.05"></rect><rect x="458" y="-22" width="12" height="12" transform="rotate(45 464 -16)" fill="#F5A944" opacity="0.05"></rect><rect x="518" y="-22" width="12" height="12" transform="rotate(45 524 -16)" fill="#F5A944" opacity="0.05"></rect><rect x="-22" y="38" width="12" height="12" transform="rotate(45 -16 44)" fill="#F5A944" opacity="0.05"></rect><rect x="38" y="38" width="12" height="12" transform="rotate(45 44 44)" fill="#F5A944" opacity="0.05"></rect><rect x="98" y="38" width="12" height="12" transform="rotate(45 104 44)" fill="#F5A944" opacity="0.05"></rect><rect x="158" y="38" width="12" height="12" transform="rotate(45 164 44)" fill="#F5A944" opacity="0.05"></rect><rect x="218" y="38" width="12" height="12" transform="rotate(45 224 44)" fill="#F5A944" opacity="0.05"></rect><rect x="278" y="38" width="12" height="12" transform="rotate(45 284 44)" fill="#F5A944" opacity="0.05"></rect><rect x="338" y="38" width="12" height="12" transform="rotate(45 344 44)" fill="#F5A944" opacity="0.05"></rect><rect x="398" y="38" width="12" height="12" transform="rotate(45 404 44)" fill="#F5A944" opacity="0.05"></rect><rect x="458" y="38" width="12" height="12" transform="rotate(45 464 44)" fill="#F5A944" opacity="0.05"></rect><rect x="518" y="38" width="12" height="12" transform="rotate(45 524 44)" fill="#F5A944" opacity="0.05"></rect><rect x="-22" y="98" width="12" height="12" transform="rotate(45 -16 104)" fill="#F5A944" opacity="0.05"></rect><rect x="38" y="98" width="12" height="12" transform="rotate(45 44 104)" fill="#F5A944" opacity="0.05"></rect><rect x="98" y="98" width="12" height="12" transform="rotate(45 104 104)" fill="#F5A944" opacity="0.05"></rect><rect x="158" y="98" width="12" height="12" transform="rotate(45 164 104)" fill="#F5A944" opacity="0.05"></rect><rect x="218" y="98" width="12" height="12" transform="rotate(45 224 104)" fill="#F5A944" opacity="0.05"></rect><rect x="278" y="98" width="12" height="12" transform="rotate(45 284 104)" fill="#F5A944" opacity="0.05"></rect><rect x="338" y="98" width="12" height="12" transform="rotate(45 344 104)" fill="#F5A944" opacity="0.05"></rect><rect x="398" y="98" width="12" height="12" transform="rotate(45 404 104)" fill="#F5A944" opacity="0.05"></rect><rect x="458" y="98" width="12" height="12" transform="rotate(45 464 104)" fill="#F5A944" opacity="0.05"></rect><rect x="518" y="98" width="12" height="12" transform="rotate(45 524 104)" fill="#F5A944" opacity="0.05"></rect><rect x="-22" y="158" width="12" height="12" transform="rotate(45 -16 164)" fill="#F5A944" opacity="0.05"></rect><rect x="38" y="158" width="12" height="12" transform="rotate(45 44 164)" fill="#F5A944" opacity="0.05"></rect><rect x="98" y="158" width="12" height="12" transform="rotate(45 104 164)" fill="#F5A944" opacity="0.05"></rect><rect x="158" y="158" width="12" height="12" transform="rotate(45 164 164)" fill="#F5A944" opacity="0.05"></rect><rect x="218" y="158" width="12" height="12" transform="rotate(45 224 164)" fill="#F5A944" opacity="0.05"></rect><rect x="278" y="158" width="12" height="12" transform="rotate(45 284 164)" fill="#F5A944" opacity="0.05"></rect><rect x="338" y="158" width="12" height="12" transform="rotate(45 344 164)" fill="#F5A944" opacity="0.05"></rect><rect x="398" y="158" width="12" height="12" transform="rotate(45 404 164)" fill="#F5A944" opacity="0.05"></rect><rect x="458" y="158" width="12" height="12" transform="rotate(45 464 164)" fill="#F5A944" opacity="0.05"></rect><rect x="518" y="158" width="12" height="12" transform="rotate(45 524 164)" fill="#F5A944" opacity="0.05"></rect><rect x="-22" y="218" width="12" height="12" transform="rotate(45 -16 224)" fill="#F5A944" opacity="0.05"></rect><rect x="38" y="218" width="12" height="12" transform="rotate(45 44 224)" fill="#F5A944" opacity="0.05"></rect><rect x="98" y="218" width="12" height="12" transform="rotate(45 104 224)" fill="#F5A944" opacity="0.05"></rect><rect x="158" y="218" width="12" height="12" transform="rotate(45 164 224)" fill="#F5A944" opacity="0.05"></rect><rect x="218" y="218" width="12" height="12" transform="rotate(45 224 224)" fill="#F5A944" opacity="0.05"></rect><rect x="278" y="218" width="12" height="12" transform="rotate(45 284 224)" fill="#F5A944" opacity="0.05"></rect><rect x="338" y="218" width="12" height="12" transform="rotate(45 344 224)" fill="#F5A944" opacity="0.05"></rect><rect x="398" y="218" width="12" height="12" transform="rotate(45 404 224)" fill="#F5A944" opacity="0.05"></rect><rect x="458" y="218" width="12" height="12" transform="rotate(45 464 224)" fill="#F5A944" opacity="0.05"></rect><rect x="518" y="218" width="12" height="12" transform="rotate(45 524 224)" fill="#F5A944" opacity="0.05"></rect><rect x="-22" y="278" width="12" height="12" transform="rotate(45 -16 284)" fill="#F5A944" opacity="0.05"></rect><rect x="38" y="278" width="12" height="12" transform="rotate(45 44 284)" fill="#F5A944" opacity="0.05"></rect><rect x="98" y="278" width="12" height="12" transform="rotate(45 104 284)" fill="#F5A944" opacity="0.05"></rect><rect x="158" y="278" width="12" height="12" transform="rotate(45 164 284)" fill="#F5A944" opacity="0.05"></rect><rect x="218" y="278" width="12" height="12" transform="rotate(45 224 284)" fill="#F5A944" opacity="0.05"></rect><rect x="278" y="278" width="12" height="12" transform="rotate(45 284 284)" fill="#F5A944" opacity="0.05"></rect><rect x="338" y="278" width="12" height="12" transform="rotate(45 344 284)" fill="#F5A944" opacity="0.05"></rect><rect x="398" y="278" width="12" height="12" transform="rotate(45 404 284)" fill="#F5A944" opacity="0.05"></rect><rect x="458" y="278" width="12" height="12" transform="rotate(45 464 284)" fill="#F5A944" opacity="0.05"></rect><rect x="518" y="278" width="12" height="12" transform="rotate(45 524 284)" fill="#F5A944" opacity="0.05"></rect><rect x="-22" y="338" width="12" height="12" transform="rotate(45 -16 344)" fill="#F5A944" opacity="0.05"></rect><rect x="38" y="338" width="12" height="12" transform="rotate(45 44 344)" fill="#F5A944" opacity="0.05"></rect><rect x="98" y="338" width="12" height="12" transform="rotate(45 104 344)" fill="#F5A944" opacity="0.05"></rect><rect x="158" y="338" width="12" height="12" transform="rotate(45 164 344)" fill="#F5A944" opacity="0.05"></rect><rect x="218" y="338" width="12" height="12" transform="rotate(45 224 344)" fill="#F5A944" opacity="0.05"></rect><rect x="278" y="338" width="12" height="12" transform="rotate(45 284 344)" fill="#F5A944" opacity="0.05"></rect><rect x="338" y="338" width="12" height="12" transform="rotate(45 344 344)" fill="#F5A944" opacity="0.05"></rect><rect x="398" y="338" width="12" height="12" transform="rotate(45 404 344)" fill="#F5A944" opacity="0.05"></rect><rect x="458" y="338" width="12" height="12" transform="rotate(45 464 344)" fill="#F5A944" opacity="0.05"></rect><rect x="518" y="338" width="12" height="12" transform="rotate(45 524 344)" fill="#F5A944" opacity="0.05"></rect><rect x="-22" y="398" width="12" height="12" transform="rotate(45 -16 404)" fill="#F5A944" opacity="0.05"></rect><rect x="38" y="398" width="12" height="12" transform="rotate(45 44 404)" fill="#F5A944" opacity="0.05"></rect><rect x="98" y="398" width="12" height="12" transform="rotate(45 104 404)" fill="#F5A944" opacity="0.05"></rect><rect x="158" y="398" width="12" height="12" transform="rotate(45 164 404)" fill="#F5A944" opacity="0.05"></rect><rect x="218" y="398" width="12" height="12" transform="rotate(45 224 404)" fill="#F5A944" opacity="0.05"></rect><rect x="278" y="398" width="12" height="12" transform="rotate(45 284 404)" fill="#F5A944" opacity="0.05"></rect><rect x="338" y="398" width="12" height="12" transform="rotate(45 344 404)" fill="#F5A944" opacity="0.05"></rect><rect x="398" y="398" width="12" height="12" transform="rotate(45 404 404)" fill="#F5A944" opacity="0.05"></rect><rect x="458" y="398" width="12" height="12" transform="rotate(45 464 404)" fill="#F5A944" opacity="0.05"></rect><rect x="518" y="398" width="12" height="12" transform="rotate(45 524 404)" fill="#F5A944" opacity="0.05"></rect><rect x="-22" y="458" width="12" height="12" transform="rotate(45 -16 464)" fill="#F5A944" opacity="0.05"></rect><rect x="38" y="458" width="12" height="12" transform="rotate(45 44 464)" fill="#F5A944" opacity="0.05"></rect><rect x="98" y="458" width="12" height="12" transform="rotate(45 104 464)" fill="#F5A944" opacity="0.05"></rect><rect x="158" y="458" width="12" height="12" transform="rotate(45 164 464)" fill="#F5A944" opacity="0.05"></rect><rect x="218" y="458" width="12" height="12" transform="rotate(45 224 464)" fill="#F5A944" opacity="0.05"></rect><rect x="278" y="458" width="12" height="12" transform="rotate(45 284 464)" fill="#F5A944" opacity="0.05"></rect><rect x="338" y="458" width="12" height="12" transform="rotate(45 344 464)" fill="#F5A944" opacity="0.05"></rect><rect x="398" y="458" width="12" height="12" transform="rotate(45 404 464)" fill="#F5A944" opacity="0.05"></rect><rect x="458" y="458" width="12" height="12" transform="rotate(45 464 464)" fill="#F5A944" opacity="0.05"></rect><rect x="518" y="458" width="12" height="12" transform="rotate(45 524 464)" fill="#F5A944" opacity="0.05"></rect><rect x="-22" y="518" width="12" height="12" transform="rotate(45 -16 524)" fill="#F5A944" opacity="0.05"></rect><rect x="38" y="518" width="12" height="12" transform="rotate(45 44 524)" fill="#F5A944" opacity="0.05"></rect><rect x="98" y="518" width="12" height="12" transform="rotate(45 104 524)" fill="#F5A944" opacity="0.05"></rect><rect x="158" y="518" width="12" height="12" transform="rotate(45 164 524)" fill="#F5A944" opacity="0.05"></rect><rect x="218" y="518" width="12" height="12" transform="rotate(45 224 524)" fill="#F5A944" opacity="0.05"></rect><rect x="278" y="518" width="12" height="12" transform="rotate(45 284 524)" fill="#F5A944" opacity="0.05"></rect><rect x="338" y="518" width="12" height="12" transform="rotate(45 344 524)" fill="#F5A944" opacity="0.05"></rect><rect x="398" y="518" width="12" height="12" transform="rotate(45 404 524)" fill="#F5A944" opacity="0.05"></rect><rect x="458" y="518" width="12" height="12" transform="rotate(45 464 524)" fill="#F5A944" opacity="0.05"></rect><rect x="518" y="518" width="12" height="12" transform="rotate(45 524 524)" fill="#F5A944" opacity="0.05"></rect></g>
  <g transform="translate(256,256) scale(0.8) translate(-256,-256)">
    <path d="M228,186 C215,170 241,156 228,154 C217,140 237,130 228,118" fill="none" stroke="#FBF7F0" stroke-width="9" stroke-linecap="round" opacity="0.8"></path><path d="M256,186 C243,170 269,156 256,140 C245,126 265,116 256,104" fill="none" stroke="#FBF7F0" stroke-width="9" stroke-linecap="round" opacity="0.8"></path><path d="M288,186 C275,170 301,156 288,156 C277,142 297,132 288,120" fill="none" stroke="#FBF7F0" stroke-width="9" stroke-linecap="round" opacity="0.8"></path>
    <path d="M256,198 C214,198 198,208 198,226 C198,240 208,248 222,252 C172,264 152,300 152,330 C152,392 198,432 256,432 C314,432 360,392 360,330 C360,300 340,264 290,252 C304,248 314,240 314,226 C314,208 298,198 256,198 Z" fill="url(#pot)"></path>
    <ellipse cx="212" cy="285" rx="34" ry="60" fill="#FFFFFF" opacity="0.14"></ellipse>
    <g clip-path="url(#potclip)"><rect x="110" y="308" width="300" height="30" fill="#FBF7F0"></rect><path d="M120,308 L133,335 L146,308 Z" fill="#1C4D22"></path><path d="M146,308 L159,335 L172,308 Z" fill="#1C4D22"></path><path d="M172,308 L185,335 L198,308 Z" fill="#1C4D22"></path><path d="M198,308 L211,335 L224,308 Z" fill="#1C4D22"></path><path d="M224,308 L237,335 L250,308 Z" fill="#1C4D22"></path><path d="M250,308 L263,335 L276,308 Z" fill="#1C4D22"></path><path d="M276,308 L289,335 L302,308 Z" fill="#1C4D22"></path><path d="M302,308 L315,335 L328,308 Z" fill="#1C4D22"></path><path d="M328,308 L341,335 L354,308 Z" fill="#1C4D22"></path><path d="M354,308 L367,335 L380,308 Z" fill="#1C4D22"></path><path d="M380,308 L393,335 L406,308 Z" fill="#1C4D22"></path><rect x="110" y="336" width="300" height="4" fill="#E07B2A" opacity="0.55"></rect></g>
    <rect x="190" y="180" width="132" height="28" rx="14" fill="#E89A3A"></rect>
    <rect x="190" y="180" width="132" height="10" rx="5" fill="#FBC56A" opacity="0.7"></rect>
    <path d="M256,198 C214,198 198,208 198,226 C198,240 208,248 222,252 C172,264 152,300 152,330 C152,392 198,432 256,432 C314,432 360,392 360,330 C360,300 340,264 290,252 C304,248 314,240 314,226 C314,208 298,198 256,198 Z" fill="none" stroke="#B5611E" stroke-width="3" opacity="0.35"></path>
  </g>
</svg>